<svg width="375" height="415" viewBox="0 0 375 415" fill="none" xmlns="http://www.w3.org/2000/svg">
<path d="M0.904674 414.5C0.904674 414.5 51.6681 358.524 81.3437 320.667C100.387 296.374 111.763 283.059 128.216 257.255C142.697 234.543 150.104 221.342 161.457 197.295C174.906 168.808 189.84 122.517 189.84 122.517L317.865 175.292C317.865 175.292 286.126 206.891 264.303 225.634C240.605 245.989 225.982 255.904 201.055 274.843C175.069 294.588 160.417 305.567 133.892 324.62C83.0075 361.17 0.904674 414.5 0.904674 414.5Z" fill="#36E17F"/>
<path d="M281.962 0.405796L374.611 203.722L253.024 153.65L120.708 146.843L281.962 0.405796Z" fill="#36E17F"/>
</svg>
