<svg width="632" height="453" viewBox="0 0 632 453" fill="none" xmlns="http://www.w3.org/2000/svg">
<path d="M1.22501 22.5H36.55L52.3 135.225H52.75L68.5 22.5H103.825V180H80.425V60.75H79.975L61.975 180H41.275L23.275 60.75H22.825V180H1.22501V22.5Z" fill="white"/>
<path d="M145.919 22.5H179.444L205.094 180H180.344L175.844 148.725V149.175H147.719L143.219 180H120.269L145.919 22.5ZM172.919 127.8L161.894 49.95H161.444L150.644 127.8H172.919Z" fill="white"/>
<path d="M221.602 22.5H252.652L276.727 116.775H277.177V22.5H299.227V180H273.802L244.102 65.025H243.652V180H221.602V22.5Z" fill="white"/>
<path d="M37.225 452.25C25.225 452.25 16.075 448.875 9.77501 442.125C3.47501 435.225 0.325012 425.4 0.325012 412.65V292.5H25.075V414.45C25.075 419.85 26.125 423.75 28.225 426.15C30.475 428.55 33.625 429.75 37.675 429.75C41.725 429.75 44.8 428.55 46.9 426.15C49.15 423.75 50.275 419.85 50.275 414.45V292.5H74.125V412.65C74.125 425.4 70.975 435.225 64.675 442.125C58.375 448.875 49.225 452.25 37.225 452.25Z" fill="white"/>
<path d="M96.2524 292.5H132.702C145.002 292.5 154.227 295.8 160.377 302.4C166.527 309 169.602 318.675 169.602 331.425V346.95C169.602 359.7 166.527 369.375 160.377 375.975C154.227 382.575 145.002 385.875 132.702 385.875H121.002V450H96.2524V292.5ZM132.702 363.375C136.752 363.375 139.752 362.25 141.702 360C143.802 357.75 144.852 353.925 144.852 348.525V329.85C144.852 324.45 143.802 320.625 141.702 318.375C139.752 316.125 136.752 315 132.702 315H121.002V363.375H132.702Z" fill="white"/>
<path d="M205.077 438.374C205.077 438.374 260.837 379.639 293.02 339.609C313.672 313.922 326.106 299.905 343.561 272.371C358.924 248.136 366.653 233.984 378.195 208.062C391.867 177.355 394 159.474 394 159.474L325.747 152.43L505.402 0.650879L631.789 232.246L554 198.935C554 198.935 526.986 226.921 502.587 246.271C476.091 267.283 459.528 277.316 431.459 296.678C402.197 316.863 385.686 328.074 355.728 347.457C298.259 384.639 205.077 438.374 205.077 438.374Z" fill="#36E17F"/>
</svg>
